<?xml version="1.0" encoding="utf-8"?>
<!-- Generator: Adobe Illustrator 27.5.0, SVG Export Plug-In . SVG Version: 6.00 Build 0)  -->
<svg version="1.1" xmlns="http://www.w3.org/2000/svg" xmlns:xlink="http://www.w3.org/1999/xlink" x="0px" y="0px"
	 viewBox="0 0 500 500" style="enable-background:new 0 0 500 500;" xml:space="preserve">
<g id="BACKGROUND">
	<rect y="0" style="fill:#FFFFFF;" width="500" height="500"/>
</g>
<g id="OBJECTS">
	<g>
		<path style="fill:#DDE7FF;" d="M426.312,192.9c0.004-0.212,0.021-0.42,0.021-0.633c0-29.71-22.539-53.795-50.344-53.795
			c-5.611,0-10.986,1.023-16.025,2.832c-5.131-41.201-38.117-72.996-78.078-72.996c-34.355,0-63.561,23.509-74.34,56.291
			c-8.234-3.123-17.096-4.837-26.334-4.837c-39.078,0-71.486,30.412-77.695,70.289c-42.078,7.737-74.48,55.796-74.48,113.939
			c0,63.532,40.152,124.427,87.873,124.427c21.297,0,234.555-1.565,249.713-1.565c53.789,0,97.393-58.511,97.393-130.687
			C464.015,254.171,449.251,216.81,426.312,192.9z"/>
		<g>
			<g>
				<path style="fill:#255D60;" d="M74.608,409.059c20.275,17.051,44.248,21.91,45.531,20.386
					c2.02-2.402-7.615-24.311-27.889-41.362c-20.275-17.05-43.992-22.215-45.531-20.385C45.374,369.3,54.335,392.008,74.608,409.059
					z"/>
				<g>
					<g>
						<g>
							<path style="fill:#EDEDED;" d="M52.634,372.384c18.082,13.968,46.41,37.792,63.271,53.211
								C97.823,411.628,69.495,387.803,52.634,372.384z"/>
						</g>
					</g>
				</g>
				<g>
					<g>
						<g>
							<path style="fill:#EDEDED;" d="M82.577,412.637c7.578,1.154,19.445,4.505,26.508,7.483
								C101.507,418.966,89.64,415.616,82.577,412.637z"/>
						</g>
					</g>
				</g>
				<g>
					<g>
						<g>
							<path style="fill:#EDEDED;" d="M89.194,386.455c0.799,1.785,1.624,3.858,2.434,6.084c0.912,2.19,1.925,4.493,2.823,6.841
								c1.095,2.263,2.079,4.578,3.05,6.742c1.067,2.114,2.012,4.136,2.766,5.94c-1.156-1.555-2.42-3.415-3.709-5.442
								c-1.192-2.077-2.303-4.379-3.411-6.677c-0.914-2.381-1.831-4.766-2.527-7.059C90.024,390.557,89.534,388.363,89.194,386.455z
								"/>
						</g>
					</g>
				</g>
				<g>
					<g>
						<g>
							<path style="fill:#EDEDED;" d="M70.819,400.295c4.973-0.365,12.854,0.568,17.604,2.086
								C83.45,402.747,75.568,401.813,70.819,400.295z"/>
						</g>
					</g>
				</g>
				<g>
					<g>
						<g>
							<path style="fill:#EDEDED;" d="M72.534,377.419c2.154,4.031,4.171,10.993,4.504,15.552
								C74.884,388.941,72.867,381.977,72.534,377.419z"/>
						</g>
					</g>
				</g>
				<g>
					<g>
						<g>
							<path style="fill:#EDEDED;" d="M57.431,384.244c3.406-0.443,8.701,0.358,11.824,1.79
								C65.849,386.477,60.554,385.675,57.431,384.244z"/>
						</g>
					</g>
				</g>
			</g>
			<g>
				<path style="fill:#257C86;" d="M89.983,397.561c9.168,14.016,22.791,21.324,23.848,20.635c1.66-1.086-0.18-16.103-9.346-30.117
					c-9.166-14.016-22.578-21.464-23.846-20.637C79.532,368.167,80.819,383.545,89.983,397.561z"/>
				<g>
					<g>
						<g>
							<path style="fill:#EDEDED;" d="M83.366,371.357c8.4,11.75,21.207,31.332,28.604,43.738
								C103.569,403.345,90.763,383.763,83.366,371.357z"/>
						</g>
					</g>
				</g>
				<g>
					<g>
						<g>
							<path style="fill:#EDEDED;" d="M94.155,401.179c4.376,2.079,10.949,6.27,14.682,9.359
								C104.46,408.46,97.888,404.269,94.155,401.179z"/>
						</g>
					</g>
				</g>
				<g>
					<g>
						<g>
							<path style="fill:#EDEDED;" d="M102.931,386.536c0.158,1.227,0.281,2.631,0.366,4.126c0.153,1.492,0.347,3.07,0.463,4.655
								c0.25,1.569,0.425,3.15,0.618,4.638c0.26,1.475,0.463,2.87,0.59,4.1c-0.417-1.152-0.842-2.509-1.252-3.971
								c-0.344-1.475-0.596-3.07-0.849-4.663c-0.12-1.607-0.24-3.219-0.244-4.732C102.687,389.17,102.79,387.753,102.931,386.536z"
								/>
						</g>
					</g>
				</g>
				<g>
					<g>
						<g>
							<path style="fill:#EDEDED;" d="M89.286,391.566c3.077,0.685,7.679,2.687,10.277,4.471
								C96.486,395.352,91.885,393.35,89.286,391.566z"/>
						</g>
					</g>
				</g>
				<g>
					<g>
						<g>
							<path style="fill:#EDEDED;" d="M94.495,378.031c0.569,2.833,0.52,7.415-0.109,10.235
								C93.816,385.433,93.866,380.851,94.495,378.031z"/>
						</g>
					</g>
				</g>
				<g>
					<g>
						<g>
							<path style="fill:#EDEDED;" d="M84.106,379.409c2.144,0.353,5.202,1.803,6.832,3.238
								C88.796,382.294,85.736,380.844,84.106,379.409z"/>
						</g>
					</g>
				</g>
			</g>
			<g>
				<path style="fill:#257C86;" d="M77.817,429.02c16.648,1.811,30.943-4.08,31.082-5.334c0.213-1.973-12.559-10.081-29.207-11.892
					c-16.648-1.812-30.916,3.827-31.08,5.331C48.468,418.442,61.171,427.207,77.817,429.02z"/>
				<g>
					<g>
						<g>
							<path style="fill:#EDEDED;" d="M53.366,417.504c14.412,0.965,37.673,3.495,51.955,5.651
								C90.909,422.191,67.648,419.661,53.366,417.504z"/>
						</g>
					</g>
				</g>
				<g>
					<g>
						<g>
							<path style="fill:#EDEDED;" d="M83.261,428.092c4.385-2.063,11.795-4.483,16.551-5.406
								C95.427,424.749,88.018,427.169,83.261,428.092z"/>
						</g>
					</g>
				</g>
				<g>
					<g>
						<g>
							<path style="fill:#EDEDED;" d="M77.515,412.016c1.048,0.656,2.211,1.453,3.42,2.337c1.25,0.828,2.593,1.681,3.892,2.597
								c1.371,0.803,2.703,1.672,3.976,2.466c1.305,0.734,2.512,1.464,3.543,2.146c-1.154-0.409-2.473-0.941-3.863-1.552
								c-1.357-0.671-2.751-1.488-4.142-2.304c-1.319-0.929-2.64-1.857-3.813-2.815C79.396,413.878,78.365,412.898,77.515,412.016z"
								/>
						</g>
					</g>
				</g>
				<g>
					<g>
						<g>
							<path style="fill:#EDEDED;" d="M72.741,425.753c2.482-1.943,6.95-4.228,9.979-5.104
								C80.237,422.592,75.77,424.878,72.741,425.753z"/>
						</g>
					</g>
				</g>
				<g>
					<g>
						<g>
							<path style="fill:#EDEDED;" d="M65.587,413.139c2.551,1.357,6.062,4.303,7.842,6.579
								C70.878,418.361,67.367,415.415,65.587,413.139z"/>
						</g>
					</g>
				</g>
				<g>
					<g>
						<g>
							<path style="fill:#EDEDED;" d="M60.06,422.042c1.633-1.433,4.693-2.876,6.838-3.225
								C65.265,420.25,62.203,421.693,60.06,422.042z"/>
						</g>
					</g>
				</g>
			</g>
		</g>
		<g>
			<g>
				<path style="fill:#255D60;" d="M418.011,411.139c-15.162,12.752-33.092,16.387-34.051,15.246
					c-1.51-1.797,5.695-18.182,20.857-30.934c15.162-12.751,32.9-16.613,34.051-15.245
					C439.876,381.405,433.175,398.387,418.011,411.139z"/>
				<g>
					<g>
						<g>
							<path style="fill:#EDEDED;" d="M434.446,383.711c-12.457,11.715-33.642,29.531-47.32,39.795
								C399.583,411.792,420.769,393.975,434.446,383.711z"/>
						</g>
					</g>
				</g>
				<g>
					<g>
						<g>
							<path style="fill:#EDEDED;" d="M412.052,413.815c-5.217,2.458-14.092,4.964-19.824,5.598
								C397.444,416.955,406.319,414.449,412.052,413.815z"/>
						</g>
					</g>
				</g>
				<g>
					<g>
						<g>
							<path style="fill:#EDEDED;" d="M407.103,394.234c-0.197,1.442-0.521,3.099-0.938,4.853c-0.494,1.728-1.168,3.521-1.853,5.307
								c-0.831,1.723-1.677,3.441-2.597,4.984c-0.992,1.506-1.977,2.876-2.893,4.008c0.513-1.381,1.179-2.913,1.949-4.506
								c0.697-1.63,1.418-3.363,2.234-5.051c0.671-1.751,1.44-3.463,2.148-5.089C405.788,397.088,406.448,395.553,407.103,394.234z"
								/>
						</g>
					</g>
				</g>
				<g>
					<g>
						<g>
							<path style="fill:#EDEDED;" d="M420.845,404.586c-3.523,1.372-9.418,2.07-13.164,1.559
								C411.204,404.773,417.098,404.075,420.845,404.586z"/>
						</g>
					</g>
				</g>
				<g>
					<g>
						<g>
							<path style="fill:#EDEDED;" d="M419.562,387.477c-0.02,3.475-1.527,8.684-3.367,11.631
								C416.214,395.632,417.721,390.425,419.562,387.477z"/>
						</g>
					</g>
				</g>
				<g>
					<g>
						<g>
							<path style="fill:#EDEDED;" d="M430.858,392.581c-2.3,1.307-6.259,1.906-8.842,1.339
								C424.316,392.613,428.275,392.013,430.858,392.581z"/>
						</g>
					</g>
				</g>
			</g>
			<g>
				<path style="fill:#257C86;" d="M406.513,402.541c-6.855,10.481-17.045,15.947-17.836,15.432
					c-1.24-0.811,0.135-12.042,6.99-22.523c6.855-10.482,16.887-16.052,17.834-15.434
					C414.329,380.557,413.366,392.058,406.513,402.541z"/>
				<g>
					<g>
						<g>
							<path style="fill:#EDEDED;" d="M411.462,382.943c-5.406,9.36-14.983,24.006-21.393,32.711
								C395.476,406.293,405.053,391.648,411.462,382.943z"/>
						</g>
					</g>
				</g>
				<g>
					<g>
						<g>
							<path style="fill:#EDEDED;" d="M403.394,405.247c-2.71,2.438-7.626,5.571-10.98,6.999
								C395.123,409.807,400.039,406.674,403.394,405.247z"/>
						</g>
					</g>
				</g>
				<g>
					<g>
						<g>
							<path style="fill:#EDEDED;" d="M396.829,394.294c0.143,0.909,0.249,1.971,0.315,3.108c0.017,1.136-0.065,2.345-0.154,3.55
								c-0.189,1.194-0.389,2.39-0.664,3.491c-0.326,1.092-0.673,2.102-1.021,2.953c0.059-0.93,0.183-1.979,0.358-3.083
								c0.126-1.113,0.246-2.294,0.433-3.465c0.087-1.183,0.241-2.359,0.374-3.472C396.554,396.262,396.673,395.212,396.829,394.294
								z"/>
						</g>
					</g>
				</g>
				<g>
					<g>
						<g>
							<path style="fill:#EDEDED;" d="M407.034,398.057c-1.883,1.473-5.324,2.97-7.686,3.344
								C401.232,399.928,404.673,398.431,407.034,398.057z"/>
						</g>
					</g>
				</g>
				<g>
					<g>
						<g>
							<path style="fill:#EDEDED;" d="M403.14,387.934c0.621,2.107,0.657,5.535,0.08,7.655
								C402.599,393.481,402.563,390.054,403.14,387.934z"/>
						</g>
					</g>
				</g>
				<g>
					<g>
						<g>
							<path style="fill:#EDEDED;" d="M410.907,388.964c-1.153,1.21-3.44,2.295-5.107,2.422
								C406.954,390.176,409.239,389.092,410.907,388.964z"/>
						</g>
					</g>
				</g>
			</g>
			<g>
				<path style="fill:#257C86;" d="M415.61,426.068c-12.449,1.353-23.141-3.052-23.244-3.989c-0.16-1.476,9.392-7.539,21.844-8.894
					c12.449-1.354,23.121,2.862,23.244,3.987C437.562,418.157,428.062,424.712,415.61,426.068z"/>
				<g>
					<g>
						<g>
							<path style="fill:#EDEDED;" d="M433.897,417.456c-10.665,1.763-28.06,3.655-38.855,4.227
								C405.707,419.919,423.103,418.027,433.897,417.456z"/>
						</g>
					</g>
				</g>
				<g>
					<g>
						<g>
							<path style="fill:#EDEDED;" d="M411.54,425.374c-3.603-0.547-9.146-2.357-12.377-4.043
								C402.767,421.878,408.309,423.687,411.54,425.374z"/>
						</g>
					</g>
				</g>
				<g>
					<g>
						<g>
							<path style="fill:#EDEDED;" d="M415.839,413.351c-0.611,0.688-1.365,1.443-2.202,2.217c-0.867,0.732-1.853,1.438-2.842,2.133
								c-1.042,0.611-2.092,1.217-3.118,1.702c-1.051,0.441-2.051,0.815-2.93,1.087c0.756-0.545,1.645-1.114,2.609-1.68
								c0.94-0.61,1.93-1.267,2.952-1.865c0.969-0.683,1.976-1.31,2.921-1.914C414.144,414.386,415.03,413.813,415.839,413.351z"/>
						</g>
					</g>
				</g>
				<g>
					<g>
						<g>
							<path style="fill:#EDEDED;" d="M419.407,423.625c-2.334-0.521-5.675-2.23-7.463-3.817
								C414.278,420.328,417.619,422.037,419.407,423.625z"/>
						</g>
					</g>
				</g>
				<g>
					<g>
						<g>
							<path style="fill:#EDEDED;" d="M424.759,414.191c-1.234,1.817-3.861,4.021-5.865,4.92
								C420.128,417.293,422.754,415.09,424.759,414.191z"/>
						</g>
					</g>
				</g>
				<g>
					<g>
						<g>
							<path style="fill:#EDEDED;" d="M428.892,420.848c-1.668-0.124-3.957-1.203-5.113-2.411
								C425.446,418.561,427.735,419.64,428.892,420.848z"/>
						</g>
					</g>
				</g>
			</g>
		</g>
		<g>
			<path style="fill:#FBAB18;" d="M452.03,213.328c-20.75,15.364-50.027,10.999-65.391-9.752l0,0
				c-15.365-20.752-10.998-50.027,9.75-65.392l0,0c20.75-15.364,50.025-11,65.393,9.752l0,0
				C477.147,168.689,472.78,197.964,452.03,213.328L452.03,213.328z"/>
			<path style="fill:#D66612;" d="M443.915,202.368c-14.697,10.883-35.434,7.792-46.318-6.907l0,0
				c-10.883-14.699-7.789-35.434,6.908-46.317l0,0c14.697-10.882,35.436-7.792,46.318,6.907l0,0
				C461.706,170.749,458.61,191.486,443.915,202.368L443.915,202.368z"/>
			<g>
				<path style="fill:#FBAB18;" d="M438.604,178.764c0.074-0.326,0.078-0.835,0.016-1.527c-0.066-0.694-0.188-1.478-0.363-2.353
					c-0.182-0.881-0.438-1.802-0.77-2.766c-0.334-0.963-0.768-1.899-1.303-2.803l-7.518,5.567l0.541,1.278
					c0.711,1.811,1.291,3.501,1.738,5.076c0.447,1.574,0.643,3.047,0.58,4.416c-0.066,1.372-0.41,2.646-1.037,3.829
					c-0.627,1.184-1.65,2.299-3.07,3.351c-1.598,1.182-3.166,1.906-4.717,2.178c-1.547,0.271-3.043,0.192-4.488-0.243
					c-1.441-0.434-2.822-1.161-4.141-2.182c-1.316-1.025-2.529-2.224-3.639-3.6l-4.783,3.541l-1.93-2.607l4.826-3.573
					c-1.359-2.138-2.41-4.424-3.154-6.854c-0.748-2.433-1.15-4.835-1.205-7.219l7.135-1.178c-0.061,0.404-0.07,1.028-0.025,1.871
					c0.039,0.845,0.176,1.801,0.4,2.866c0.23,1.064,0.543,2.2,0.945,3.408c0.395,1.208,0.926,2.372,1.582,3.503l7.479-5.537
					c-0.137-0.301-0.262-0.612-0.385-0.924c-0.121-0.318-0.23-0.635-0.338-0.961c-0.691-1.779-1.197-3.389-1.523-4.83
					c-0.328-1.442-0.434-2.766-0.318-3.974c0.117-1.207,0.469-2.31,1.053-3.304c0.59-0.996,1.475-1.932,2.662-2.812
					c1.451-1.074,2.938-1.781,4.457-2.122c1.518-0.341,3.012-0.369,4.48-0.086c1.465,0.281,2.881,0.862,4.246,1.736
					c1.361,0.872,2.617,1.964,3.768,3.27l4.434-3.284l1.93,2.606l-4.391,3.252c1.271,2.019,2.184,4.07,2.738,6.153
					c0.553,2.079,0.859,4.038,0.92,5.877L438.604,178.764z M428.384,165.866c-0.984,0.73-1.48,1.624-1.482,2.683
					c-0.002,1.054,0.309,2.43,0.934,4.119l7.041-5.214C432.663,164.829,430.499,164.299,428.384,165.866z M422.077,186.895
					c0.986-0.731,1.453-1.705,1.404-2.925c-0.055-1.219-0.381-2.726-0.988-4.516l-7.002,5.184
					C417.853,187.644,420.048,188.397,422.077,186.895z"/>
			</g>
		</g>
		<g>
			<rect x="101.261" y="233.891" style="fill:#7471B8;" width="36" height="192.001"/>
			<rect x="161.261" y="261.891" style="fill:#7471B8;" width="36" height="164.001"/>
			
				<rect x="246.659" y="356.811" transform="matrix(0.374 -0.9274 0.9274 0.374 -163.2614 507.7586)" style="fill:#7471B8;" width="95.639" height="36.001"/>
			
				<rect x="340.26" y="377.753" transform="matrix(0.0207 -0.9998 0.9998 0.0207 -57.8303 758.4654)" style="fill:#7471B8;" width="36" height="62.001"/>
			
				<rect x="170.26" y="338.569" transform="matrix(0.2212 -0.9752 0.9752 0.2212 -162.9657 509.0598)" style="fill:#7471B8;" width="134" height="36"/>
			<path style="fill:#EC97AE;" d="M401.718,295.425l-14.617-35.921c-1.207-2.969-4.596-4.397-7.564-3.189
				c-0.883,0.359-1.625,0.916-2.207,1.592c-0.32,0.281-0.615,0.596-0.875,0.953l-5.107,7.023l-94.832-59.718
				c-5.275-3.519-12.402-2.095-15.92,3.179c-0.244,0.366-0.459,0.743-0.656,1.126c-0.061-0.007-0.119-0.016-0.178-0.023
				l-11.686,17.517l-115.51-66.621c-5.274-3.518-12.4-2.095-15.92,3.18c-3.518,5.273-2.094,12.401,3.18,15.919l125.004,72.097
				c4.346,2.9,9.947,2.436,13.754-0.77c1.328-0.834,2.51-1.949,3.438-3.338l11.402-17.092l84.4,53.15l-4.881,6.713
				c-0.49,0.678-0.811,1.428-0.977,2.197c-0.461,0.775-0.752,1.67-0.807,2.635c-0.18,3.199,2.268,5.941,5.469,6.121l38.719,2.186
				c1.164,0.301,2.432,0.25,3.635-0.24c1.027-0.416,1.863-1.098,2.477-1.93c0.031-0.043,0.063-0.086,0.096-0.129
				c0.029-0.045,0.06-0.086,0.09-0.133c0.588-0.85,0.963-1.861,1.023-2.969C402.741,297.646,402.378,296.431,401.718,295.425z"/>
			<path style="fill:#F2779D;" d="M348.197,251.305L313.7,229.581c-8.224,4.077-17.51,8.447-17.317,8.801
				c3.041,5.574,11.246,13.159,18.429,19.021l13.03,8.206C330.9,262.607,338.959,258.835,348.197,251.305z"/>
			<g>
				<path style="fill:#F2779D;" d="M357.823,279.156l-84.4-53.15l-11.402,17.092c-0.928,1.39-2.109,2.504-3.438,3.339
					c-3.807,3.204-9.408,3.669-13.754,0.769l-125.004-72.097c-2.51-1.674-4.135-4.167-4.783-6.886
					c-1.086,4.542,0.672,9.477,4.783,12.22l125.004,72.097c4.346,2.9,9.947,2.436,13.754-0.77c1.328-0.834,2.51-1.949,3.438-3.338
					l11.402-17.092l81.74,51.476L357.823,279.156z"/>
				<path style="fill:#F2779D;" d="M401.644,296.576c-0.029,0.047-0.06,0.088-0.09,0.133c-0.033,0.043-0.065,0.086-0.096,0.129
					c-0.613,0.832-1.449,1.514-2.477,1.93c-1.203,0.49-2.471,0.541-3.635,0.24l-38.719-2.185c-2.119-0.119-3.904-1.365-4.818-3.12
					c-0.365,0.704-0.604,1.489-0.65,2.333c-0.18,3.199,2.268,5.941,5.469,6.121l38.719,2.186c1.164,0.301,2.432,0.25,3.635-0.24
					c1.027-0.416,1.863-1.098,2.477-1.93c0.031-0.043,0.063-0.086,0.096-0.129c0.029-0.045,0.06-0.086,0.09-0.133
					c0.588-0.85,0.963-1.861,1.023-2.969c0.063-1.076-0.191-2.09-0.654-2.981C401.901,296.172,401.778,296.379,401.644,296.576z"/>
			</g>
			<g>
				<g>
					<path style="fill:#002545;" d="M240.058,226.085c0,0,0.381,0.052-0.102-0.939c-0.48-0.989-3.42-4.266-4.563-4.446
						c-1.135-0.18-15.701,10.349-15.066,12.13c0.57,1.611,16.66-1.826,16.66-1.826L240.058,226.085z"/>
					<path style="fill:#F4C6BA;" d="M238.052,233.231l-2.531-2.445c0,0,0.598-3.402,4.537-4.7l2.531,2.448L238.052,233.231z"/>
				</g>
				<g>
					<path style="fill:#002545;" d="M295.12,305.707c0,0-0.029-0.385-0.9,0.287c-0.875,0.672-3.49,4.215-3.438,5.363
						c0.055,1.15,13.307,13.289,14.926,12.311c1.461-0.887-5.154-15.949-5.154-15.949L295.12,305.707z"/>
					<path style="fill:#F4C6BA;" d="M302.519,306.224l-1.883,2.977c0,0-3.453,0.1-5.516-3.494l1.883-2.977L302.519,306.224z"/>
				</g>
				<path style="fill:#0A2544;" d="M277.413,238.939c-9.541,6.305-25.08,18.197-22.193,25.147
					c3.604,8.651,17.357,8.163,41.076-6.629l21.867-15.076c0,0-4.945-11.277-17.855-13.109
					C294.081,228.387,281.671,236.119,277.413,238.939"/>
				<path style="fill:#0A2544;" d="M274.14,258.46l-31.191-32.402c0,0-6.771,3.531-7.43,7.067l21.141,33.43
					C256.659,266.554,272.298,269.264,274.14,258.46"/>
				<path style="fill:#0A2544;" d="M304.655,266.819c7.119,8.945,17.377,19.456,24.045,15.97c8.305-4.346,1.58-17.45-15.238-39.778
					l-19.841-11.04l-12.423,26.561c0,0,15.73-2.352,16.383-1.376C298.919,259.141,301.474,262.824,304.655,266.819"/>
				<path style="fill:#0A2544;" d="M375.347,225.199c0,0,9.777-5.499,31.418-8.185c9.297-1.153,5.08,3.499-3.859,8.065
					c-11.873,6.071-21.334,12.176-27.352,8.649C373.296,232.404,375.347,225.199,375.347,225.199"/>
				<path style="fill:#F4C39F;" d="M419.661,222.068c0,0,0.752,0.078,1.475-1.155c0.721-1.235,0.135-2.254,0.135-2.254
					s1.309-0.217,1.926-1.917c0.621-1.702-0.986-2.228-0.986-2.228s-0.826,0.861-4.645,1.885c-3.82,1.023-6.197-0.424-6.197-0.424
					s-3.406-1.742-4.109-5.243l0.01-0.026c0,0,2.1-2.903,1.816-4.344c-0.281-1.44-1.486-2.087-2.063-0.827
					c-0.578,1.261-3.865,7.453-3.865,7.453h0.002c-1.965,2.917,0.373,8.801,2.746,9.747c6.32,2.521,11.383,2.291,12.865,1.417
					C420.249,223.274,419.661,222.068,419.661,222.068"/>
				<path style="fill:#061A2D;" d="M322.837,257.379c2.803-3.618,13.852-8.052,25.736-19.137c4.373-4.081,6.189-15.39,5.188-18.633
					c-0.877-2.834,4.59-17.729,4.666-20.666c0.357-13.837-26.287,6.725-37.332,15.333c-3.996,3.113-29.406,14.595-29.088,15.179
					C297.802,240.075,322.349,258.011,322.837,257.379z"/>
				<path style="fill:#0A2544;" d="M346.447,232.381c-1.008,3.357,1.492,6.74,4.997,6.749c5.908,0.014,18.429,0.874,29.184-4.363
					c17.457-8.5-10.914-14.203-28.278-11.547c-2.011,0.308-3.671,1.731-4.256,3.68L346.447,232.381z"/>
				<path style="fill:#061A2D;" d="M341.735,222.745c0,0,11.459-8.966,15.986-29.171c4.525-20.201-16.922,0.793-24.713,16.56
					L341.735,222.745z"/>
				<path style="fill:#0A2544;" d="M368.12,181.918c0,0,8.705-7.53,18.822-27.494c4.344-8.574-1.613-6.121-9.131,0.922
					c-9.986,9.359-19.17,16.369-17.854,23.407C360.45,181.393,368.12,181.918,368.12,181.918"/>
				<path style="fill:#0A2544;" d="M319.565,265.108l-24.645,37.624c0,0,4.949,5.813,8.545,5.664l26.107-26.459
					C329.573,281.937,330.507,264.497,319.565,265.108"/>
				<g>
					<path style="fill:#F4C39F;" d="M348.858,210.536c-1.172,1.55-2.432,2.616-3.447,3.328c2.486,6.921,8.887,7.034,8.887,7.034
						c0.133-0.644,0.324-1.396,0.605-2.208c0.293-0.849,0.68-1.766,1.199-2.704c1.193-2.148,2.629-3.619,3.801-4.585
						c0.34-0.279,0.66-0.512,0.941-0.71l-8.885-7.034c-0.111,0.511-0.264,1.11-0.477,1.774c-0.371,1.168-0.938,2.534-1.803,3.916
						C349.431,209.744,349.157,210.141,348.858,210.536"/>
					<path style="fill:#ED9A9B;" d="M356.304,207.095l-4.344-3.438c-0.111,0.511-0.264,1.11-0.477,1.774
						c-0.373,1.165-0.935,2.534-1.805,3.916c-0.248,0.396-0.522,0.793-0.82,1.189c-1.172,1.549-2.432,2.616-3.445,3.329
						c0.887,2.469,2.274,4.063,3.688,5.103C350.321,214.347,352.815,210.218,356.304,207.095"/>
					<path style="fill:#ED9A9B;" d="M351.485,205.434c-0.375,1.17-2.252,4.338-3.119,5.72c1.215,2.945,3.215,6.778,6.537,7.537
						c0.293-0.851,0.68-1.769,1.199-2.705c1.188-2.148,2.629-3.62,3.803-4.583c0.008-0.591,0.008-1.092,0.01-1.449
						c-0.008-0.374-0.012-0.59-0.012-0.59l-1.791-0.836L351.485,205.434z"/>
					<path style="fill:#F4C39F;" d="M379.382,207.158l0.311-0.763l5.834-11.961c-4.076-6.752-17.789-15.825-24.07-15.305
						c-7.91,0.654-16.553,17.198-14.435,24.85c1.869,6.761,14.168,15.34,21.16,14.763c4.359-0.36,10.127-4.726,14.072-9.848
						C380.97,207.814,379.382,207.158,379.382,207.158"/>
					<path style="fill:#ED9A9B;" d="M359.167,215.198c-5.142-4.993-7.092-12.557-6.086-19.012c-1.824-0.629-3.477-0.679-5.059-1.771
						c-1.225,3.562-1.699,7.044-1.002,9.563c1.412,5.107,8.777,11.25,15.307,13.702
						C361.196,216.962,360.132,216.135,359.167,215.198"/>
					<path style="fill:#ED9A9B;" d="M385.526,194.434c-3.131-5.186-11.945-11.737-18.713-14.263
						c-1.838,1.098-3.35,2.128-3.697,2.567c-0.834,1.044-1.922,6.512-1.922,6.512s5.449,0.967,7.662-0.941
						c0,0,8.428,7.77,14.223,11.14L385.526,194.434z"/>
					<path style="fill:#D66612;" d="M363.155,171.841c-10.746-0.896-20.397,26.534-15.477,28.104
						c8.379,2.673,2.99-1.871,7.332-8.857c4.34-6.987,4.459,0.155,4.459,0.155s4.176-7.013,6.703-7.469
						c2.525-0.455,1.574-2.283,1.367-2.483C367.335,181.09,363.155,171.841,363.155,171.841"/>
					<path style="fill:#F4C39F;" d="M359.222,189.409c0.197-1.065-2.102-3.011-4.289-2.993c-2.188,0.017-3.803,5.657-2.674,7.362
						c0.94,1.42,2.227,2.424,3.119,2.177C356.276,195.712,358.86,191.382,359.222,189.409"/>
					<path style="fill:#D66612;" d="M369.183,186.451l2.938-3.025c-2.281-0.863-4.129-1.326-5.086-1.303
						c-3.07,0.072-7.703,5.066-7.703,5.066l-1.307,2.913c0,0-2.818,5.512-2.826,6.58c-0.008,1.069,0.598,2.621,0.662,1.938
						c0.064-0.684,5.217-7.766,6.117-9.251c0.902-1.484,2.332,0.181,7.154-2.961C369.132,186.406,369.153,186.424,369.183,186.451"
						/>
					<path style="fill:#D66612;" d="M385.667,197.904c3.805,1.622,7.543,2.928,9.105-0.899c0.025-0.063,0.051-0.126,0.074-0.191
						c2.801-7.167-10.555-23.188-28.131-22.209c0,0-1.371-3.103-5.147-2.875c-3.777,0.228-7.912,7.038-7.441,10.663l9.803-0.784
						C363.931,181.608,375.892,193.739,385.667,197.904"/>
					<path style="fill:#F4C39F;" d="M379.382,207.158c0,0,3.689,1.277,2.73,3.752c-1.104,2.845-4.525,2.09-4.525,2.09"/>
					<path style="fill:none;stroke:#6C351F;stroke-linecap:round;stroke-linejoin:round;stroke-miterlimit:10;" d="M380.204,205.386
						c-0.393,0.739-0.73,1.427-0.822,1.772c0,0,3.689,1.277,2.729,3.751c-1.102,2.846-4.522,2.092-4.522,2.092"/>
					<path style="fill:none;stroke:#6C351F;stroke-linecap:round;stroke-linejoin:round;stroke-miterlimit:10;" d="M378.179,198.138
						c0,0-2.408,0.812-3.738-1.755"/>
					<path style="fill:#6C351F;" d="M373.854,201.171c-0.609,0.876-0.77,1.822-0.353,2.111c0.416,0.29,1.248-0.184,1.859-1.063
						c0.611-0.875,0.771-1.822,0.353-2.112C375.3,199.818,374.466,200.294,373.854,201.171"/>
					<path style="fill:#6C351F;" d="M356.054,190.217c-0.408,1.114-1.119,1.881-1.59,1.71c-0.471-0.17,0.223-0.978,0.631-2.095
						c0.402-1.115,0.369-2.116,0.838-1.944C356.403,188.058,356.458,189.102,356.054,190.217"/>
					<path style="fill:#F1728E;" d="M367.739,204.264c-0.357,0.514,0.693,1.871,2.35,3.026c1.658,1.156,3.295,1.675,3.652,1.161
						c0.359-0.517-0.693-1.871-2.352-3.027C369.735,204.267,368.101,203.748,367.739,204.264"/>
					<path style="fill:#FFFFFF;" d="M364.187,214.402c0.326-0.314,0.951-0.8,1.826-0.99c0.707-0.151,1.58-0.105,2.586,0.376
						c1.174,0.563,1.828,1.203,2.178,1.811c0.484,0.831,0.395,1.598,0.275,2.021c-0.047,0.182-0.293,0.255-0.51,0.155l-6.211-2.901
						C364.11,214.771,364.04,214.541,364.187,214.402"/>
				</g>
				<path style="fill:#F4C39F;" d="M392.995,142.993c0,0,0.631-0.447,1.9,0.294c1.27,0.739,1.258,1.944,1.258,1.944
					s1.279-0.466,2.688,0.743c1.412,1.207,0.242,2.489,0.242,2.489s-1.174-0.354-5.104,0.655c-3.93,1.012-5.324,3.502-5.324,3.502
					s-2.17,3.274-1.031,6.76l0.019,0.017c0,0,3.342,1.538,3.815,2.968c0.477,1.43-0.273,2.613-1.426,1.778
					c-1.15-0.834-7.215-4.714-7.215-4.714l0.004-0.002c-3.225-1.614-4.1-8.056-2.461-10.093c4.383-5.441,9.023-7.792,10.787-7.753
					C392.913,141.621,392.995,142.993,392.995,142.993"/>
			</g>
			<path style="fill:#7471B8;" d="M433.235,427.945c0,2.07-1.68,3.748-3.75,3.748H60.503c-2.07,0-3.75-1.678-3.75-3.748l0,0
				c0-2.072,1.68-3.75,3.75-3.75h368.982C431.556,424.195,433.235,425.873,433.235,427.945L433.235,427.945z"/>
		</g>
		<g>
			<path style="fill:#FBAB18;" d="M114.542,414.979c-10.131,7.5-24.422,5.369-31.922-4.761l0,0c-7.5-10.13-5.367-24.42,4.76-31.92
				l0,0c10.129-7.499,24.42-5.369,31.922,4.761l0,0C126.802,393.189,124.669,407.48,114.542,414.979L114.542,414.979z"/>
			<path style="fill:#D66612;" d="M110.579,409.629c-7.174,5.311-17.295,3.804-22.609-3.372l0,0
				c-5.313-7.175-3.803-17.297,3.373-22.609l0,0c7.174-5.312,17.297-3.803,22.609,3.371l0,0
				C119.265,394.195,117.753,404.317,110.579,409.629L110.579,409.629z"/>
			<g>
				<path style="fill:#FBAB18;" d="M107.987,398.107c0.035-0.159,0.039-0.408,0.008-0.746c-0.033-0.338-0.092-0.721-0.178-1.148
					c-0.088-0.43-0.213-0.879-0.375-1.35c-0.164-0.47-0.375-0.928-0.637-1.368l-3.67,2.718l0.266,0.623
					c0.346,0.884,0.629,1.71,0.848,2.478c0.219,0.768,0.313,1.487,0.283,2.156c-0.031,0.669-0.199,1.291-0.506,1.869
					c-0.307,0.577-0.807,1.122-1.498,1.636c-0.781,0.577-1.547,0.93-2.303,1.063c-0.756,0.133-1.486,0.094-2.191-0.119
					c-0.703-0.211-1.377-0.565-2.021-1.064c-0.643-0.501-1.234-1.086-1.777-1.757l-2.334,1.729l-0.941-1.273l2.355-1.744
					c-0.664-1.043-1.176-2.159-1.539-3.346c-0.365-1.188-0.563-2.359-0.59-3.523l3.484-0.575c-0.031,0.197-0.035,0.502-0.014,0.913
					c0.02,0.413,0.086,0.88,0.197,1.399c0.111,0.52,0.264,1.074,0.461,1.663c0.191,0.59,0.451,1.158,0.771,1.71l3.65-2.702
					c-0.066-0.147-0.127-0.299-0.188-0.451c-0.059-0.155-0.113-0.31-0.164-0.469c-0.338-0.869-0.586-1.654-0.744-2.358
					c-0.16-0.703-0.211-1.35-0.156-1.94c0.059-0.589,0.229-1.128,0.514-1.612c0.289-0.486,0.721-0.943,1.301-1.372
					c0.707-0.524,1.434-0.87,2.174-1.036c0.742-0.166,1.471-0.181,2.189-0.042c0.713,0.138,1.406,0.421,2.07,0.848
					c0.666,0.426,1.279,0.958,1.84,1.597l2.164-1.604l0.943,1.272l-2.145,1.587c0.621,0.986,1.066,1.987,1.338,3.004
					c0.27,1.015,0.42,1.972,0.449,2.869L107.987,398.107z M102.999,391.811c-0.482,0.356-0.723,0.793-0.725,1.31
					c-0.002,0.515,0.15,1.187,0.455,2.011l3.438-2.545C105.087,391.304,104.03,391.046,102.999,391.811z M99.919,402.076
					c0.482-0.356,0.709-0.832,0.686-1.428c-0.025-0.595-0.186-1.33-0.482-2.204l-3.418,2.53
					C97.858,402.442,98.929,402.809,99.919,402.076z"/>
			</g>
		</g>
		<g>
			<path style="fill:#FBAB18;" d="M179.284,257.64c5.221,8.296,2.729,19.253-5.57,24.472l0,0
				c-8.295,5.221-19.252,2.727-24.471-5.568l0,0c-5.221-8.295-2.727-19.252,5.568-24.472l0,0
				C163.108,246.851,174.066,249.345,179.284,257.64L179.284,257.64z"/>
			<path style="fill:#D66612;" d="M174.903,260.398c3.695,5.876,1.932,13.636-3.945,17.334l0,0
				c-5.877,3.697-13.637,1.931-17.334-3.945l0,0c-3.697-5.876-1.932-13.637,3.943-17.334l0,0
				C163.444,252.755,171.206,254.523,174.903,260.398L174.903,260.398z"/>
			<g>
				<path style="fill:#FBAB18;" d="M165.816,261.731c-0.121-0.039-0.314-0.055-0.578-0.051c-0.266,0.006-0.564,0.029-0.9,0.07
					c-0.34,0.043-0.695,0.113-1.07,0.211c-0.373,0.1-0.74,0.236-1.098,0.413l1.893,3.005l0.498-0.168
					c0.705-0.217,1.363-0.387,1.971-0.512c0.609-0.124,1.172-0.155,1.689-0.092c0.518,0.063,0.988,0.229,1.42,0.502
					c0.43,0.272,0.822,0.689,1.18,1.258c0.402,0.639,0.631,1.253,0.689,1.848c0.057,0.594-0.016,1.158-0.221,1.692
					c-0.205,0.533-0.521,1.035-0.945,1.505c-0.428,0.469-0.916,0.893-1.467,1.274l1.203,1.912l-1.043,0.655l-1.215-1.93
					c-0.848,0.453-1.744,0.785-2.684,0.997c-0.943,0.214-1.863,0.297-2.768,0.249l-0.242-2.735c0.152,0.036,0.389,0.057,0.709,0.064
					c0.32,0.009,0.688-0.015,1.096-0.07c0.41-0.056,0.85-0.142,1.316-0.26c0.469-0.114,0.926-0.281,1.373-0.497l-1.881-2.99
					c-0.119,0.043-0.24,0.082-0.361,0.119c-0.125,0.036-0.248,0.069-0.373,0.1c-0.693,0.211-1.316,0.356-1.873,0.439
					c-0.555,0.083-1.059,0.084-1.514,0.006c-0.453-0.079-0.861-0.243-1.219-0.493c-0.361-0.252-0.689-0.613-0.988-1.088
					c-0.365-0.58-0.59-1.163-0.676-1.748c-0.084-0.584-0.053-1.15,0.096-1.699c0.15-0.545,0.41-1.066,0.779-1.557
					c0.369-0.49,0.818-0.934,1.348-1.331l-1.117-1.774l1.043-0.656l1.104,1.758c0.801-0.424,1.604-0.71,2.408-0.861
					c0.803-0.148,1.555-0.21,2.252-0.18L165.816,261.731z M160.64,265.228c0.248,0.394,0.572,0.607,0.973,0.638
					c0.4,0.031,0.928-0.045,1.586-0.234l-1.771-2.815C160.37,263.579,160.108,264.383,160.64,265.228z M168.417,268.22
					c-0.248-0.396-0.602-0.6-1.064-0.616c-0.465-0.015-1.043,0.066-1.738,0.244l1.76,2.799
					C168.581,269.839,168.929,269.031,168.417,268.22z"/>
			</g>
		</g>
		<g>
			<path style="fill:#FBAB18;" d="M278.89,362.057c7.096,11.278,3.707,26.17-7.572,33.264l0,0
				c-11.275,7.096-26.168,3.706-33.262-7.569l0,0c-7.096-11.274-3.707-26.167,7.57-33.263l0,0
				C256.903,347.392,271.794,350.783,278.89,362.057L278.89,362.057z"/>
			<path style="fill:#D66612;" d="M272.935,365.806c5.023,7.985,2.625,18.534-5.363,23.561l0,0
				c-7.988,5.025-18.535,2.624-23.56-5.363l0,0c-5.025-7.985-2.625-18.535,5.359-23.561l0,0
				C257.358,355.418,267.907,357.821,272.935,365.806L272.935,365.806z"/>
			<g>
				<path style="fill:#FBAB18;" d="M260.583,367.617c-0.166-0.051-0.43-0.074-0.787-0.068c-0.361,0.007-0.767,0.04-1.225,0.095
					c-0.461,0.061-0.943,0.155-1.453,0.289c-0.51,0.133-1.008,0.321-1.492,0.561l2.57,4.086l0.68-0.23
					c0.957-0.295,1.852-0.526,2.678-0.694c0.828-0.17,1.594-0.213,2.297-0.128c0.701,0.088,1.344,0.314,1.928,0.683
					c0.584,0.37,1.119,0.939,1.605,1.71c0.547,0.869,0.855,1.704,0.938,2.514c0.076,0.806-0.021,1.573-0.301,2.299
					c-0.279,0.725-0.709,1.407-1.285,2.046c-0.58,0.637-1.244,1.213-1.994,1.732l1.635,2.599L264.958,386l-1.648-2.623
					c-1.152,0.616-2.371,1.067-3.65,1.355c-1.281,0.291-2.531,0.403-3.76,0.339l-0.33-3.719c0.207,0.05,0.529,0.077,0.963,0.088
					c0.438,0.012,0.934-0.02,1.49-0.096c0.559-0.075,1.154-0.192,1.789-0.353c0.639-0.155,1.26-0.383,1.865-0.676l-2.557-4.063
					c-0.16,0.058-0.324,0.109-0.488,0.161c-0.17,0.049-0.338,0.094-0.508,0.135c-0.943,0.287-1.791,0.484-2.547,0.597
					c-0.754,0.111-1.438,0.113-2.057,0.008c-0.615-0.107-1.17-0.331-1.656-0.669c-0.492-0.343-0.938-0.834-1.344-1.481
					c-0.496-0.787-0.803-1.58-0.918-2.375c-0.115-0.795-0.074-1.565,0.129-2.31c0.203-0.741,0.559-1.448,1.061-2.114
					c0.502-0.668,1.111-1.272,1.832-1.811l-1.52-2.411l1.416-0.892l1.502,2.387c1.088-0.575,2.18-0.964,3.273-1.17
					c1.09-0.203,2.111-0.285,3.061-0.245L260.583,367.617z M253.548,372.372c0.334,0.536,0.777,0.825,1.32,0.868
					c0.543,0.042,1.262-0.065,2.156-0.319l-2.408-3.825C253.179,370.13,252.823,371.222,253.548,372.372z M264.118,376.438
					c-0.338-0.536-0.818-0.814-1.447-0.837c-0.631-0.021-1.418,0.09-2.363,0.332l2.392,3.804
					C264.341,378.639,264.814,377.541,264.118,376.438z"/>
			</g>
		</g>
		<g>
			<path style="fill:#FBAB18;" d="M249.741,154.794c6.016,9.561,3.143,22.186-6.418,28.2l0,0
				c-9.561,6.016-22.186,3.142-28.201-6.417l0,0c-6.014-9.559-3.141-22.185,6.418-28.2l0,0
				C231.101,142.361,243.728,145.235,249.741,154.794L249.741,154.794z"/>
			<path style="fill:#D66612;" d="M244.694,157.972c4.258,6.771,2.225,15.713-4.549,19.975l0,0
				c-6.77,4.261-15.713,2.225-19.973-4.546l0,0c-4.262-6.771-2.227-15.714,4.543-19.975l0,0
				C231.489,149.164,240.431,151.202,244.694,157.972L244.694,157.972z"/>
			<g>
				<path style="fill:#FBAB18;" d="M234.222,159.507c-0.141-0.044-0.363-0.063-0.668-0.058c-0.305,0.005-0.65,0.034-1.037,0.08
					c-0.391,0.05-0.801,0.131-1.23,0.244c-0.434,0.114-0.855,0.272-1.268,0.475l2.18,3.464l0.576-0.194
					c0.813-0.25,1.568-0.446,2.271-0.589c0.701-0.143,1.35-0.179,1.945-0.107c0.596,0.073,1.141,0.266,1.637,0.579
					c0.494,0.314,0.949,0.795,1.359,1.449c0.463,0.736,0.727,1.445,0.795,2.13c0.064,0.684-0.018,1.334-0.256,1.95
					c-0.236,0.614-0.6,1.192-1.09,1.734c-0.49,0.541-1.055,1.029-1.689,1.469l1.387,2.203l-1.203,0.756l-1.398-2.224
					c-0.977,0.522-2.008,0.904-3.092,1.149c-1.088,0.246-2.148,0.343-3.189,0.288l-0.277-3.152c0.174,0.041,0.445,0.065,0.814,0.074
					c0.369,0.01,0.791-0.017,1.264-0.081c0.473-0.064,0.979-0.163,1.516-0.298c0.541-0.133,1.066-0.325,1.582-0.574l-2.168-3.444
					c-0.135,0.049-0.275,0.094-0.416,0.137c-0.143,0.042-0.285,0.08-0.428,0.115c-0.801,0.243-1.518,0.411-2.158,0.506
					c-0.641,0.094-1.221,0.096-1.744,0.006c-0.521-0.091-0.992-0.28-1.406-0.567c-0.416-0.291-0.793-0.708-1.139-1.255
					c-0.42-0.669-0.68-1.34-0.779-2.015c-0.096-0.673-0.061-1.326,0.113-1.957c0.17-0.628,0.471-1.229,0.896-1.794
					c0.426-0.566,0.943-1.077,1.553-1.535l-1.287-2.044l1.199-0.756l1.275,2.024c0.922-0.488,1.846-0.818,2.775-0.991
					c0.924-0.172,1.789-0.243,2.592-0.209L234.222,159.507z M228.257,163.538c0.285,0.454,0.66,0.7,1.121,0.735
					c0.461,0.036,1.068-0.053,1.828-0.27l-2.043-3.243C227.944,161.637,227.642,162.564,228.257,163.538z M237.22,166.985
					c-0.285-0.455-0.693-0.69-1.229-0.71c-0.535-0.017-1.201,0.077-2.004,0.282l2.029,3.225
					C237.407,168.852,237.808,167.92,237.22,166.985z"/>
			</g>
		</g>
		<g>
			<path style="fill:#FBAB18;" d="M410.456,375.619c-14.023,9.238-32.881,5.363-42.119-8.662l0,0
				c-9.24-14.024-5.361-32.88,8.66-42.118l0,0c14.023-9.24,32.879-5.362,42.119,8.661l0,0
				C428.354,347.522,424.478,366.38,410.456,375.619L410.456,375.619z"/>
			<path style="fill:#D66612;" d="M405.575,368.213c-9.932,6.542-23.287,3.798-29.832-6.137l0,0
				c-6.547-9.932-3.799-23.29,6.133-29.832l0,0c9.932-6.544,23.291-3.799,29.834,6.132l0,0
				C418.255,348.311,415.505,361.668,405.575,368.213L405.575,368.213z"/>
			<g>
				<path style="fill:#FBAB18;" d="M402.966,352.696c0.063-0.211,0.082-0.544,0.066-0.995c-0.02-0.451-0.072-0.965-0.152-1.54
					c-0.088-0.577-0.221-1.185-0.4-1.821c-0.185-0.638-0.432-1.261-0.748-1.868l-5.08,3.347l0.307,0.851
					c0.396,1.202,0.713,2.318,0.945,3.357c0.236,1.04,0.309,2.002,0.221,2.89c-0.09,0.888-0.359,1.703-0.809,2.45
					c-0.451,0.747-1.152,1.436-2.111,2.067c-1.08,0.711-2.127,1.124-3.143,1.246c-1.014,0.118-1.982,0.016-2.904-0.318
					c-0.922-0.332-1.793-0.854-2.613-1.565c-0.818-0.714-1.563-1.536-2.236-2.466l-3.233,2.129l-1.158-1.764l3.262-2.148
					c-0.809-1.435-1.406-2.957-1.807-4.56c-0.398-1.609-0.574-3.183-0.527-4.73l4.68-0.513c-0.057,0.261-0.084,0.665-0.086,1.214
					c-0.002,0.551,0.051,1.176,0.162,1.877c0.108,0.7,0.272,1.449,0.49,2.244c0.213,0.801,0.516,1.573,0.904,2.333l5.051-3.33
					c-0.076-0.201-0.148-0.406-0.217-0.614c-0.066-0.21-0.127-0.421-0.184-0.633c-0.387-1.184-0.658-2.245-0.818-3.191
					c-0.162-0.949-0.182-1.813-0.065-2.594c0.119-0.778,0.387-1.483,0.801-2.107c0.418-0.629,1.025-1.203,1.828-1.733
					c0.98-0.643,1.971-1.051,2.971-1.221c0.996-0.163,1.971-0.13,2.914,0.108c0.938,0.232,1.84,0.659,2.693,1.275
					c0.854,0.615,1.631,1.37,2.33,2.26l2.996-1.977l1.162,1.761l-2.969,1.957c0.754,1.355,1.273,2.72,1.561,4.094
					c0.285,1.371,0.416,2.654,0.391,3.848L402.966,352.696z M396.79,343.956c-0.666,0.438-1.022,1.002-1.061,1.686
					c-0.037,0.688,0.111,1.588,0.461,2.71l4.756-3.136C399.607,343.432,398.218,343.01,396.79,343.956z M391.942,357.385
					c0.666-0.439,1.006-1.053,1.018-1.849c0.008-0.795-0.15-1.783-0.48-2.97l-4.73,3.116
					C389.175,357.724,390.573,358.288,391.942,357.385z"/>
			</g>
		</g>
		<g>
			<g>
				<path style="fill:#BEC9DF;" d="M439.919,289.76c0.078,2.109-1.57,3.885-3.68,3.964l0,0c-2.111,0.078-3.887-1.569-3.967-3.68
					l0.393-11.924c-0.078-2.11,1.568-3.886,3.68-3.965l0,0c2.111-0.078,3.885,1.568,3.965,3.68L439.919,289.76z"/>
				<path style="fill:#BEC9DF;" d="M444.054,285.014c-0.27-0.169-0.565-0.261-0.861-0.286c-0.139-0.031-0.279-0.05-0.428-0.051
					l-13.322-0.04c-0.279-0.001-0.545,0.059-0.783,0.165c-0.301,0.026-0.598,0.122-0.869,0.296c-0.9,0.575-1.164,1.771-0.588,2.671
					l6.963,10.884c0.147,0.373,0.408,0.706,0.775,0.936c0.313,0.195,0.66,0.289,1.004,0.293c0.018,0,0.035,0,0.053,0
					s0.037,0,0.053-0.002c0.346-0.006,0.691-0.102,1.004-0.303c0.363-0.232,0.621-0.568,0.764-0.941l6.85-10.956
					C445.233,286.774,444.96,285.581,444.054,285.014z"/>
			</g>
		</g>
		<g>
			<g>
				<path style="fill:#BEC9DF;" d="M74.431,302.699c0.119,3.164-2.354,5.827-5.518,5.945l0,0c-3.168,0.117-5.832-2.354-5.951-5.52
					l0.59-17.885c-0.119-3.166,2.352-5.829,5.519-5.947l0,0c3.166-0.117,5.826,2.352,5.947,5.52L74.431,302.699z"/>
				<path style="fill:#BEC9DF;" d="M80.634,295.58c-0.404-0.253-0.846-0.392-1.291-0.429c-0.209-0.047-0.42-0.075-0.643-0.076
					l-19.982-0.061c-0.42-0.002-0.818,0.088-1.176,0.248c-0.451,0.039-0.896,0.183-1.305,0.443c-1.35,0.863-1.744,2.656-0.881,4.006
					l10.445,16.326c0.219,0.56,0.611,1.059,1.162,1.403c0.469,0.293,0.99,0.434,1.506,0.44c0.027,0,0.053,0,0.08,0
					c0.025,0,0.055,0,0.078-0.003c0.52-0.009,1.037-0.152,1.506-0.454c0.545-0.349,0.932-0.853,1.146-1.412l10.274-16.435
					C82.403,298.219,81.991,296.429,80.634,295.58z"/>
			</g>
		</g>
		<g>
			<g>
				<path style="fill:#BEC9DF;" d="M304.7,156.333c0.145,3.831-2.85,7.055-6.682,7.199l0,0c-3.836,0.142-7.06-2.851-7.203-6.683
					l0.713-21.655c-0.145-3.833,2.848-7.057,6.682-7.201l0,0c3.834-0.142,7.057,2.849,7.201,6.683L304.7,156.333z"/>
				<path style="fill:#BEC9DF;" d="M312.212,147.713c-0.49-0.307-1.025-0.474-1.565-0.52c-0.252-0.057-0.508-0.09-0.777-0.092
					l-24.195-0.073c-0.508-0.002-0.99,0.107-1.424,0.3c-0.545,0.048-1.086,0.222-1.578,0.537c-1.635,1.045-2.113,3.216-1.066,4.851
					l12.646,19.767c0.266,0.677,0.74,1.282,1.408,1.699c0.564,0.354,1.197,0.525,1.822,0.532c0.031,0,0.065,0,0.096,0
					c0.031,0,0.066,0,0.096-0.003c0.629-0.011,1.256-0.185,1.824-0.55c0.658-0.422,1.125-1.032,1.387-1.71l12.439-19.898
					C314.354,150.909,313.857,148.742,312.212,147.713z"/>
			</g>
		</g>
		
			<ellipse transform="matrix(0.0227 -0.9997 0.9997 0.0227 10.6917 329.2997)" style="fill:#FFFFFF;" cx="173.778" cy="159.181" rx="8.531" ry="8.531"/>
		<path style="fill:#FFFFFF;" d="M416.017,254.426c0,4.712-3.818,8.531-8.529,8.531c-4.713,0-8.531-3.819-8.531-8.531
			c0-4.711,3.818-8.53,8.531-8.53C412.198,245.896,416.017,249.715,416.017,254.426z"/>
		<path style="fill:#FFFFFF;" d="M227.189,282.092c0,4.556-3.691,8.249-8.248,8.249c-4.557,0-8.248-3.693-8.248-8.249
			c0-4.556,3.691-8.248,8.248-8.248C223.497,273.844,227.189,277.537,227.189,282.092z"/>
		<path style="fill:#FFFFFF;" d="M158.86,231.928c0,2.944-2.387,5.332-5.33,5.332c-2.945,0-5.332-2.387-5.332-5.332
			c0-2.945,2.387-5.332,5.332-5.332C156.474,226.596,158.86,228.983,158.86,231.928z"/>
		<path style="fill:#FFFFFF;" d="M348.521,354.921c0,2.944-2.387,5.332-5.332,5.332c-2.943,0-5.332-2.388-5.332-5.332
			c0-2.945,2.389-5.332,5.332-5.332C346.134,349.589,348.521,351.976,348.521,354.921z"/>
		<path style="fill:#FFFFFF;" d="M443.179,330.923c0,2.944-2.387,5.332-5.33,5.332c-2.945,0-5.332-2.388-5.332-5.332
			c0-2.945,2.387-5.332,5.332-5.332C440.792,325.591,443.179,327.978,443.179,330.923z"/>
		<circle style="fill:#FFFFFF;" cx="291.522" cy="99.935" r="5.332"/>
		<path style="fill:#FFFFFF;" d="M331.353,189.262c0,2.944-2.387,5.332-5.332,5.332c-2.943,0-5.332-2.388-5.332-5.332
			c0-2.945,2.389-5.332,5.332-5.332C328.966,183.93,331.353,186.317,331.353,189.262z"/>
		<path style="fill:#FFFFFF;" d="M275.142,121.518c0,7.979-6.469,14.45-14.449,14.45c-7.979,0-14.449-6.471-14.449-14.45
			c0-7.982,6.471-14.451,14.449-14.451C268.673,107.067,275.142,113.535,275.142,121.518z"/>
		<path style="fill:#FFFFFF;" d="M214.942,307.463c0,2.278-1.846,4.124-4.123,4.124c-2.277,0-4.125-1.846-4.125-4.124
			c0-2.277,1.848-4.124,4.125-4.124C213.097,303.339,214.942,305.186,214.942,307.463z"/>
		<path style="fill:#FFFFFF;" d="M59.866,334.591c0,2.944-2.387,5.331-5.332,5.331c-2.943,0-5.332-2.387-5.332-5.331
			c0-2.944,2.389-5.332,5.332-5.332C57.479,329.259,59.866,331.647,59.866,334.591z"/>
		<path style="fill:#FFFFFF;" d="M87.528,246.927c0,4.969-4.027,8.997-8.996,8.997c-4.969,0-8.998-4.028-8.998-8.997
			c0-4.97,4.029-8.998,8.998-8.998C83.501,237.929,87.528,241.958,87.528,246.927z"/>
		<path style="fill:#FFFFFF;" d="M87.532,347.422c0,4.969-4.027,8.997-8.996,8.997c-4.969,0-8.998-4.028-8.998-8.997
			c0-4.97,4.029-8.998,8.998-8.998C83.505,338.424,87.532,342.453,87.532,347.422z"/>
	</g>
</g>
</svg>
